<svg width="40" height="41" viewBox="0 0 40 41" fill="none" xmlns="http://www.w3.org/2000/svg">
<path d="M20.485 23.2667C11.605 23.3217 6.82669 28.1167 6.66669 37.135C6.66002 37.5834 6.83169 38.0133 7.14502 38.3333C7.45836 38.6533 7.88669 38.8317 8.33336 38.8317H32.6584C33.1067 38.8317 33.5334 38.6533 33.8467 38.3333C34.16 38.015 34.3334 37.5834 34.325 37.135C34.1717 28.2484 29.265 23.3234 20.485 23.2667Z" fill="#6BA0A6"/>
<path d="M20.5052 21.0133C26.5235 20.9783 29.7635 17.7283 29.8752 11.5616C29.7718 5.62829 26.3568 2.20496 20.4852 2.16663C14.5502 2.20329 11.1152 5.70329 11.1152 11.62C11.1152 17.5366 14.5518 20.9783 20.5052 21.0133Z" fill="#6BA0A6"/>
</svg>
