<svg width="40" height="41" viewBox="0 0 40 41" fill="none" xmlns="http://www.w3.org/2000/svg">
<path d="M20.4855 23.2667C11.6055 23.3217 6.82718 28.1167 6.66718 37.135C6.66051 37.5834 6.83218 38.0134 7.14551 38.3334C7.45885 38.6534 7.88718 38.8317 8.33385 38.8317H32.6588C33.1072 38.8317 33.5338 38.6534 33.8472 38.3334C34.1605 38.015 34.3338 37.5834 34.3255 37.135C34.1722 28.2484 29.2655 23.3234 20.4855 23.2667Z" fill="#E06152"/>
<path d="M20.5056 21.0133C26.524 20.9783 29.764 17.7283 29.8756 11.5617C29.7723 5.62832 26.3573 2.20499 20.4856 2.16666C14.5506 2.20332 11.1156 5.70332 11.1156 11.62C11.1156 17.5367 14.5523 20.9783 20.5056 21.0133Z" fill="#E06152"/>
</svg>
