<svg width="32" height="22" viewBox="0 0 32 22" fill="none" xmlns="http://www.w3.org/2000/svg">
<path d="M2.81545 13.7697C1.26052 13.7697 0 12.4801 0 10.8892C0 9.29834 1.26052 8.00869 2.81545 8.00869H25.6503C27.2052 8.00869 28.4657 9.29834 28.4657 10.8892C28.4657 12.4801 27.2052 13.7697 25.6503 13.7697H2.81545Z" fill="#6BA0A6"/>
<path d="M19.7326 21.6386C18.1376 22.6328 16.0937 21.4583 16.0937 19.5474C16.0937 18.6791 16.543 17.8758 17.2747 17.436L29.3006 10.2073C29.8996 9.84724 30.6544 10.2892 30.6544 11C30.6544 11.7108 29.8996 12.1528 29.3006 11.7927L17.2747 4.56401C16.543 4.12419 16.0937 3.32087 16.0937 2.45264C16.0937 0.541743 18.1376 -0.632848 19.7326 0.361429L29.5032 6.45225C31.0538 7.41885 32 9.14229 32 11C32 12.8577 31.0538 14.5812 29.5032 15.5478L19.7326 21.6386Z" fill="#6BA0A6"/>
</svg>
