<svg width="150" height="29" viewBox="0 0 150 29" fill="none" xmlns="http://www.w3.org/2000/svg">
<path d="M0.48 28V-1.90735e-06H6.92V18.24L20.28 -1.90735e-06H26.36V28H19.96V9.8L6.6 28H0.48ZM48.0916 28L40.8916 17.8L45.9716 14.8L55.4516 28H48.0916ZM32.8516 28V6.48H39.0916V28H32.8516ZM37.2516 19.84V14.84H44.7716V19.84H37.2516ZM46.5716 17.96L40.7316 17.32L48.2916 6.48H54.9316L46.5716 17.96ZM68.3716 28.32C65.9182 28.32 63.7582 27.84 61.8916 26.88C60.0516 25.92 58.6249 24.6133 57.6116 22.96C56.5982 21.28 56.0916 19.3733 56.0916 17.24C56.0916 15.08 56.5849 13.1733 57.5716 11.52C58.5849 9.84 59.9582 8.53333 61.6916 7.6C63.4249 6.64 65.3849 6.16 67.5716 6.16C69.6782 6.16 71.5716 6.61333 73.2516 7.52C74.9582 8.4 76.3049 9.68 77.2916 11.36C78.2782 13.0133 78.7716 15 78.7716 17.32C78.7716 17.56 78.7582 17.84 78.7316 18.16C78.7049 18.4533 78.6782 18.7333 78.6516 19H61.1716V15.36H75.3716L72.9716 16.44C72.9716 15.32 72.7449 14.3467 72.2916 13.52C71.8382 12.6933 71.2116 12.0533 70.4116 11.6C69.6116 11.12 68.6782 10.88 67.6116 10.88C66.5449 10.88 65.5982 11.12 64.7716 11.6C63.9716 12.0533 63.3449 12.7067 62.8916 13.56C62.4382 14.3867 62.2116 15.3733 62.2116 16.52V17.48C62.2116 18.6533 62.4649 19.6933 62.9716 20.6C63.5049 21.48 64.2382 22.16 65.1716 22.64C66.1316 23.0933 67.2516 23.32 68.5316 23.32C69.6782 23.32 70.6782 23.1467 71.5316 22.8C72.4116 22.4533 73.2116 21.9333 73.9316 21.24L77.2516 24.84C76.2649 25.96 75.0249 26.8267 73.5316 27.44C72.0382 28.0267 70.3182 28.32 68.3716 28.32ZM87.4125 28V10.16L88.8125 11.6H80.1325V6.48H100.893V11.6H92.2125L93.6125 10.16V28H87.4125ZM113.84 28.32C111.387 28.32 109.227 27.84 107.36 26.88C105.52 25.92 104.094 24.6133 103.08 22.96C102.067 21.28 101.56 19.3733 101.56 17.24C101.56 15.08 102.054 13.1733 103.04 11.52C104.054 9.84 105.427 8.53333 107.16 7.6C108.894 6.64 110.854 6.16 113.04 6.16C115.147 6.16 117.04 6.61333 118.72 7.52C120.427 8.4 121.774 9.68 122.76 11.36C123.747 13.0133 124.24 15 124.24 17.32C124.24 17.56 124.227 17.84 124.2 18.16C124.174 18.4533 124.147 18.7333 124.12 19H106.64V15.36H120.84L118.44 16.44C118.44 15.32 118.214 14.3467 117.76 13.52C117.307 12.6933 116.68 12.0533 115.88 11.6C115.08 11.12 114.147 10.88 113.08 10.88C112.014 10.88 111.067 11.12 110.24 11.6C109.44 12.0533 108.814 12.7067 108.36 13.56C107.907 14.3867 107.68 15.3733 107.68 16.52V17.48C107.68 18.6533 107.934 19.6933 108.44 20.6C108.974 21.48 109.707 22.16 110.64 22.64C111.6 23.0933 112.72 23.32 114 23.32C115.147 23.32 116.147 23.1467 117 22.8C117.88 22.4533 118.68 21.9333 119.4 21.24L122.72 24.84C121.734 25.96 120.494 26.8267 119 27.44C117.507 28.0267 115.787 28.32 113.84 28.32ZM126.108 27.96L126.428 22.84C126.588 22.8667 126.748 22.8933 126.908 22.92C127.068 22.92 127.215 22.92 127.348 22.92C128.095 22.92 128.681 22.7067 129.108 22.28C129.535 21.8533 129.855 21.28 130.068 20.56C130.281 19.8133 130.428 18.9733 130.508 18.04C130.615 17.1067 130.695 16.1333 130.748 15.12L131.068 6.48H149.468V28H143.228V10.08L144.628 11.6H135.188L136.508 10L136.228 15.4C136.148 17.32 135.988 19.08 135.748 20.68C135.535 22.28 135.175 23.6667 134.668 24.84C134.161 25.9867 133.481 26.88 132.628 27.52C131.775 28.1333 130.681 28.44 129.348 28.44C128.868 28.44 128.361 28.4 127.828 28.32C127.295 28.24 126.721 28.12 126.108 27.96Z" fill="#E06152"/>
</svg>
