<svg width="41" height="46" viewBox="0 0 41 46" fill="none" xmlns="http://www.w3.org/2000/svg">
<path fill-rule="evenodd" clip-rule="evenodd" d="M11.5007 12.5H8C6.89543 12.5 6 13.3954 6 14.5V35.5C6 36.6046 6.89543 37.5 8 37.5H11.3915C12.0811 37.5 12.722 37.1448 13.0875 36.56L14.4125 34.44C14.778 33.8552 15.4189 33.5 16.1085 33.5H24.8915C25.5811 33.5 26.222 33.8552 26.5875 34.44L27.9125 36.56C28.278 37.1448 28.9189 37.5 29.6085 37.5H33C34.1046 37.5 35 36.6046 35 35.5V21.4444C35 20.9193 34.7935 20.4153 34.4251 20.0412L27.5876 13.0968C27.2117 12.715 26.6983 12.5 26.1625 12.5H22.7814L22.2349 14.8651C24.3218 15.9956 25.1044 18.8989 23.3955 20.9496L20.1375 24.8591C18.4961 26.8288 15.4515 26.7673 13.8909 24.733L10.8812 20.8096C9.31901 18.7732 10.0896 16.0345 12.0553 14.9005L11.5007 12.5ZM13.5534 12.5H20.7287L19.8334 16.375L20.3761 16.3895C20.8046 16.401 21.1812 16.538 21.4863 16.7569C22.3705 17.3915 22.6542 18.715 21.859 19.6692L18.6011 23.5787C17.7804 24.5636 16.2581 24.5328 15.4778 23.5157L12.4681 19.5923C11.7269 18.6261 12.036 17.3436 12.9094 16.7307C13.2252 16.5091 13.6147 16.375 14.055 16.375H14.4487L13.5534 12.5Z" fill="#6BA0A6"/>
<path d="M14.4502 5.5H19.8308C21.1172 5.5 22.0691 6.69689 21.7795 7.95027L19.8328 16.375L20.3756 16.3895C22.0457 16.4343 22.9281 18.3857 21.8585 19.6692L18.6006 23.5787C17.7799 24.5636 16.2576 24.5328 15.4773 23.5157L12.4676 19.5923C11.4584 18.2767 12.3963 16.375 14.0545 16.375H14.4482L12.5016 7.95026C12.212 6.69689 13.1638 5.5 14.4502 5.5Z" fill="#6BA0A6"/>
</svg>
